<svg width="1210" height="1210" viewBox="0 0 1210 1210" fill="none" xmlns="http://www.w3.org/2000/svg">
<rect x="337" y="681" width="530" height="88" rx="14" fill="white"/>
<path d="M350.8 466.555C346.086 466.555 342.103 468.193 338.851 471.445C335.587 474.71 333.961 478.705 333.961 483.444V640.24C333.961 644.954 335.587 648.937 338.851 652.189C341.939 655.453 345.834 657.079 350.548 657.079H432.324C437.063 657.079 441.059 655.453 444.323 652.189C447.373 649.139 448.911 645.257 448.911 640.543C448.911 635.803 447.272 631.808 444.021 628.543C440.756 625.493 436.773 623.956 432.072 623.956H377.168C374.269 623.956 371.836 622.947 369.858 620.931C367.841 618.952 366.833 616.519 366.833 613.62V483.696C366.833 478.995 365.383 474.911 362.497 471.445C359.396 468.193 355.501 466.555 350.8 466.555Z" fill="#00BF63" stroke="black" stroke-width="5"/>
<mask id="mask0_4215_3170" style="mask-type:luminance" maskUnits="userSpaceOnUse" x="431" y="465" width="311" height="195">
<path d="M434 468.018H738.92V656.778H434V468.018Z" fill="white" stroke="white" stroke-width="5"/>
</mask>
<g mask="url(#mask0_4215_3170)">
<path fill-rule="evenodd" clip-rule="evenodd" d="M528.783 657.496C581.103 657.496 623.516 615.083 623.516 562.75C623.516 551.079 632.994 541.613 644.665 541.613C656.349 541.613 665.815 551.079 665.815 562.75C665.815 574.435 656.349 583.9 644.665 583.9C640.09 583.9 635.855 582.451 632.389 579.98C630.637 590.543 627.322 600.588 622.658 609.852C629.351 612.978 636.8 614.73 644.665 614.73C673.365 614.73 696.645 591.45 696.645 562.75C696.645 534.063 673.365 510.784 644.665 510.784C615.978 510.784 592.686 534.063 592.686 562.75C592.686 598.067 564.087 626.666 528.783 626.666C493.478 626.666 464.867 598.067 464.867 562.75C464.867 527.446 493.478 498.847 528.783 498.847C538.816 498.847 548.319 501.167 556.776 505.288C562.587 496.402 569.721 488.462 577.888 481.718C563.57 473.021 546.756 468.018 528.783 468.018C476.463 468.018 434.037 510.431 434.037 562.75C434.037 615.083 476.463 657.496 528.783 657.496ZM644.665 657.496C696.985 657.496 739.411 615.083 739.411 562.75C739.411 510.431 696.985 468.018 644.665 468.018C592.345 468.018 549.932 510.431 549.932 562.75C549.932 574.435 540.454 583.9 528.783 583.9C517.099 583.9 507.633 574.435 507.633 562.75C507.633 551.079 517.099 541.613 528.783 541.613C533.358 541.613 537.593 543.063 541.059 545.533C542.811 534.958 546.126 524.925 550.79 515.661C544.097 512.535 536.648 510.784 528.783 510.784C500.083 510.784 476.803 534.063 476.803 562.763C476.803 591.45 500.083 614.73 528.783 614.73C557.47 614.73 580.762 591.45 580.762 562.763C580.762 527.446 609.361 498.847 644.665 498.847C679.97 498.847 708.581 527.446 708.581 562.763C708.581 598.067 679.97 626.666 644.665 626.666C634.632 626.666 625.129 624.347 616.684 620.225C610.861 629.111 603.727 637.052 595.572 643.795C609.89 652.492 626.692 657.496 644.665 657.496Z" fill="white" stroke="black" stroke-width="5"/>
</g>
<path d="M784.803 510.904C784.803 507.98 785.811 505.535 787.828 503.543C789.807 501.565 792.24 500.569 795.138 500.569H813.641C814.713 500.569 816.616 500.758 819.338 501.123C821.859 501.464 824.582 502.371 827.506 503.846C830.228 505.295 832.661 507.552 834.816 510.602C836.997 513.702 838.093 517.963 838.093 523.408C838.093 528.853 836.997 533.113 834.816 536.163C832.661 539.264 830.228 541.532 827.506 542.969C824.582 544.419 821.859 545.326 819.338 545.692C816.616 546.07 814.713 546.246 813.641 546.246H795.138C792.24 546.246 789.807 545.238 787.828 543.221C785.811 541.242 784.803 538.81 784.803 535.911V510.904ZM813.893 467.143H768.518C763.805 467.143 759.809 468.781 756.519 472.033C753.255 475.297 751.629 479.28 751.629 483.982V640.828C751.629 645.542 753.255 649.525 756.519 652.777C759.607 656.041 763.502 657.667 768.216 657.667C772.955 657.667 776.951 656.041 780.215 652.777C783.265 649.727 784.803 645.819 784.803 641.08V590.563C784.803 587.638 785.811 585.193 787.828 583.202C789.807 581.223 792.24 580.227 795.138 580.227H813.641C821.771 580.227 829.384 578.765 836.48 575.841C843.538 573.156 849.689 569.274 854.933 564.195C860 559.292 864.083 553.393 867.184 546.498C870.07 539.617 871.52 532.004 871.52 523.66C871.52 515.328 870.07 507.627 867.184 500.569C864.285 493.687 860.302 487.7 855.235 482.62C849.954 477.717 843.791 473.898 836.732 471.176C829.674 468.491 822.061 467.143 813.893 467.143Z" fill="#00BF63" stroke="black" stroke-width="5"/>
<path d="M369.878 750.683H351.627V699.208H370.029C375.197 699.208 379.659 700.242 383.389 702.283C387.145 704.338 390.019 707.275 392.011 711.106C394.027 714.938 395.036 719.526 395.036 724.87C395.036 730.252 394.027 734.878 392.011 738.735C389.994 742.566 387.095 745.528 383.339 747.608C379.57 749.662 375.083 750.683 369.878 750.683ZM362.517 741.356H369.424C374.264 741.356 377.919 740.046 380.415 737.424C382.936 734.802 384.196 730.618 384.196 724.87C384.196 719.16 382.936 715.014 380.415 712.417C377.919 709.833 374.264 708.535 369.424 708.535H362.517V741.356Z" fill="#00BF63" stroke="black" stroke-width="5"/>
<path d="M443 750.683V699.208H477.687V708.182H453.89V720.433H475.872V729.408H453.89V741.709H477.787V750.683H443Z" fill="#00BF63" stroke="black" stroke-width="5"/>
<path d="M572.333 717.207H561.292C560.888 714.383 559.678 712.165 557.662 710.552C555.67 708.938 553.187 708.132 550.2 708.132C546.23 708.132 543.041 709.594 540.621 712.518C538.226 715.442 537.041 719.576 537.041 724.92C537.041 730.441 538.251 734.625 540.671 737.474C543.091 740.335 546.242 741.759 550.15 741.759C553.036 741.759 555.494 741.003 557.51 739.491C559.527 737.978 560.788 735.848 561.292 733.088L572.333 733.138C571.93 736.302 570.795 739.276 568.955 742.062C567.102 744.822 564.581 747.078 561.393 748.818C558.191 750.532 554.385 751.389 549.948 751.389C545.373 751.389 541.276 750.355 537.646 748.263C534.041 746.184 531.206 743.171 529.126 739.239C527.034 735.306 526 730.542 526 724.92C526 719.311 527.034 714.534 529.126 710.602C531.243 706.669 534.117 703.682 537.747 701.628C541.377 699.548 545.436 698.502 549.948 698.502C553.943 698.502 557.536 699.246 560.737 700.72C563.926 702.17 566.535 704.287 568.552 707.073C570.594 709.871 571.854 713.249 572.333 717.207Z" fill="#00BF63" stroke="black" stroke-width="5"/>
<path d="M669.198 724.92C669.198 730.542 668.14 735.331 666.022 739.289C663.905 743.222 661.031 746.234 657.401 748.314C653.771 750.368 649.662 751.389 645.099 751.389C640.524 751.389 636.402 750.355 632.747 748.263C629.117 746.184 626.243 743.171 624.126 739.239C622.034 735.281 621 730.504 621 724.92C621 719.311 622.034 714.534 624.126 710.602C626.243 706.669 629.117 703.682 632.747 701.628C636.402 699.548 640.524 698.502 645.099 698.502C649.662 698.502 653.771 699.548 657.401 701.628C661.031 703.682 663.905 706.669 666.022 710.602C668.14 714.534 669.198 719.311 669.198 724.92ZM658.157 724.92C658.157 719.475 656.96 715.329 654.578 712.467C652.221 709.581 649.057 708.132 645.099 708.132C641.129 708.132 637.953 709.581 635.57 712.467C633.213 715.329 632.041 719.475 632.041 724.92C632.041 730.365 633.213 734.537 635.57 737.424C637.953 740.323 641.129 741.759 645.099 741.759C649.057 741.759 652.221 740.323 654.578 737.424C656.96 734.537 658.157 730.365 658.157 724.92Z" fill="#00BF63" stroke="black" stroke-width="5"/>
<path d="M736.251 750.683H718V699.208H736.402C741.57 699.208 746.032 700.242 749.762 702.283C753.519 704.338 756.392 707.275 758.384 711.106C760.4 714.938 761.409 719.526 761.409 724.87C761.409 730.252 760.4 734.878 758.384 738.735C756.367 742.566 753.468 745.528 749.712 747.608C745.943 749.662 741.456 750.683 736.251 750.683ZM728.89 741.356H735.797C740.637 741.356 744.292 740.046 746.788 737.424C749.309 734.802 750.569 730.618 750.569 724.87C750.569 719.16 749.309 715.014 746.788 712.417C744.292 709.833 740.637 708.535 735.797 708.535H728.89V741.356Z" fill="#00BF63" stroke="black" stroke-width="5"/>
<path d="M810 750.683V699.208H844.687V708.182H820.89V720.433H842.872V729.408H820.89V741.709H844.787V750.683H810Z" fill="#00BF63" stroke="black" stroke-width="5"/>
<path d="M380.813 812L373.5 788H377.375L382.563 806.375H382.813L387.937 788H391.875L396.938 806.312H397.188L402.375 788H406.25L398.938 812H395.313L390.063 793.562H389.688L384.438 812H380.813ZM416.563 812L409.25 788H413.125L418.313 806.375H418.563L423.687 788H427.625L432.688 806.312H432.938L438.125 788H442L434.688 812H431.063L425.813 793.562H425.438L420.188 812H416.563ZM452.313 812L445 788H448.875L454.063 806.375H454.313L459.437 788H463.375L468.438 806.312H468.688L473.875 788H477.75L470.438 812H466.813L461.563 793.562H461.188L455.938 812H452.313ZM482.047 812.25C481.276 812.25 480.615 811.974 480.063 811.422C479.51 810.87 479.234 810.208 479.234 809.437C479.234 808.667 479.51 808.005 480.063 807.453C480.615 806.901 481.276 806.625 482.047 806.625C482.818 806.625 483.479 806.901 484.031 807.453C484.583 808.005 484.859 808.667 484.859 809.437C484.859 809.948 484.729 810.417 484.469 810.844C484.219 811.271 483.88 811.615 483.453 811.875C483.036 812.125 482.568 812.25 482.047 812.25ZM495.164 780V812H491.477V780H495.164ZM511.668 812.5C509.501 812.5 507.6 811.984 505.965 810.953C504.34 809.922 503.069 808.479 502.152 806.625C501.246 804.771 500.793 802.604 500.793 800.125C500.793 797.625 501.246 795.443 502.152 793.578C503.069 791.714 504.34 790.266 505.965 789.234C507.6 788.203 509.501 787.688 511.668 787.688C513.835 787.688 515.73 788.203 517.355 789.234C518.991 790.266 520.262 791.714 521.168 793.578C522.085 795.443 522.543 797.625 522.543 800.125C522.543 802.604 522.085 804.771 521.168 806.625C520.262 808.479 518.991 809.922 517.355 810.953C515.73 811.984 513.835 812.5 511.668 812.5ZM511.668 809.188C513.314 809.188 514.668 808.766 515.73 807.922C516.793 807.078 517.579 805.969 518.09 804.594C518.6 803.219 518.855 801.729 518.855 800.125C518.855 798.521 518.6 797.026 518.09 795.641C517.579 794.255 516.793 793.135 515.73 792.281C514.668 791.427 513.314 791 511.668 791C510.022 791 508.668 791.427 507.605 792.281C506.543 793.135 505.757 794.255 505.246 795.641C504.736 797.026 504.48 798.521 504.48 800.125C504.48 801.729 504.736 803.219 505.246 804.594C505.757 805.969 506.543 807.078 507.605 807.922C508.668 808.766 510.022 809.188 511.668 809.188ZM537.922 812.5C535.755 812.5 533.854 811.984 532.219 810.953C530.594 809.922 529.323 808.479 528.406 806.625C527.5 804.771 527.047 802.604 527.047 800.125C527.047 797.625 527.5 795.443 528.406 793.578C529.323 791.714 530.594 790.266 532.219 789.234C533.854 788.203 535.755 787.688 537.922 787.688C540.089 787.688 541.984 788.203 543.609 789.234C545.245 790.266 546.516 791.714 547.422 793.578C548.339 795.443 548.797 797.625 548.797 800.125C548.797 802.604 548.339 804.771 547.422 806.625C546.516 808.479 545.245 809.922 543.609 810.953C541.984 811.984 540.089 812.5 537.922 812.5ZM537.922 809.188C539.568 809.188 540.922 808.766 541.984 807.922C543.047 807.078 543.833 805.969 544.344 804.594C544.854 803.219 545.109 801.729 545.109 800.125C545.109 798.521 544.854 797.026 544.344 795.641C543.833 794.255 543.047 793.135 541.984 792.281C540.922 791.427 539.568 791 537.922 791C536.276 791 534.922 791.427 533.859 792.281C532.797 793.135 532.01 794.255 531.5 795.641C530.99 797.026 530.734 798.521 530.734 800.125C530.734 801.729 530.99 803.219 531.5 804.594C532.01 805.969 532.797 807.078 533.859 807.922C534.922 808.766 536.276 809.188 537.922 809.188ZM554.426 821V788H557.988V791.812H558.426C558.697 791.396 559.072 790.865 559.551 790.219C560.04 789.562 560.738 788.979 561.645 788.469C562.561 787.948 563.801 787.688 565.363 787.688C567.384 787.688 569.165 788.193 570.707 789.203C572.249 790.214 573.452 791.646 574.316 793.5C575.181 795.354 575.613 797.542 575.613 800.063C575.613 802.604 575.181 804.807 574.316 806.672C573.452 808.526 572.254 809.964 570.723 810.984C569.191 811.995 567.426 812.5 565.426 812.5C563.884 812.5 562.65 812.245 561.723 811.734C560.796 811.214 560.082 810.625 559.582 809.969C559.082 809.302 558.697 808.75 558.426 808.312H558.113V821H554.426ZM558.051 800C558.051 801.812 558.316 803.411 558.848 804.797C559.379 806.172 560.155 807.25 561.176 808.031C562.197 808.802 563.447 809.188 564.926 809.188C566.467 809.188 567.754 808.781 568.785 807.969C569.827 807.146 570.608 806.042 571.129 804.656C571.66 803.26 571.926 801.708 571.926 800C571.926 798.312 571.665 796.792 571.145 795.437C570.634 794.073 569.858 792.995 568.816 792.203C567.785 791.401 566.488 791 564.926 791C563.426 791 562.165 791.38 561.145 792.141C560.124 792.891 559.353 793.943 558.832 795.297C558.311 796.641 558.051 798.208 558.051 800ZM590.301 812.5C588.301 812.5 586.535 811.995 585.004 810.984C583.473 809.964 582.275 808.526 581.41 806.672C580.546 804.807 580.113 802.604 580.113 800.063C580.113 797.542 580.546 795.354 581.41 793.5C582.275 791.646 583.478 790.214 585.02 789.203C586.561 788.193 588.342 787.688 590.363 787.688C591.926 787.688 593.16 787.948 594.066 788.469C594.983 788.979 595.681 789.562 596.16 790.219C596.65 790.865 597.03 791.396 597.301 791.812H597.613V780H601.301V812H597.738V808.312H597.301C597.03 808.75 596.645 809.302 596.145 809.969C595.645 810.625 594.931 811.214 594.004 811.734C593.077 812.245 591.842 812.5 590.301 812.5ZM590.801 809.188C592.28 809.188 593.53 808.802 594.551 808.031C595.572 807.25 596.348 806.172 596.879 804.797C597.41 803.411 597.676 801.812 597.676 800C597.676 798.208 597.415 796.641 596.895 795.297C596.374 793.943 595.603 792.891 594.582 792.141C593.561 791.38 592.301 791 590.801 791C589.238 791 587.936 791.401 586.895 792.203C585.863 792.995 585.087 794.073 584.566 795.437C584.056 796.792 583.801 798.312 583.801 800C583.801 801.708 584.061 803.26 584.582 804.656C585.113 806.042 585.895 807.146 586.926 807.969C587.967 808.781 589.259 809.188 590.801 809.188ZM618.629 812.5C616.316 812.5 614.322 811.99 612.645 810.969C610.978 809.938 609.691 808.5 608.785 806.656C607.889 804.802 607.441 802.646 607.441 800.188C607.441 797.729 607.889 795.562 608.785 793.687C609.691 791.802 610.952 790.333 612.566 789.281C614.191 788.219 616.087 787.688 618.254 787.688C619.504 787.688 620.738 787.896 621.957 788.312C623.176 788.729 624.285 789.406 625.285 790.344C626.285 791.271 627.082 792.5 627.676 794.031C628.27 795.562 628.566 797.448 628.566 799.687V801.25H610.066V798.062H624.816C624.816 796.708 624.546 795.5 624.004 794.437C623.473 793.375 622.712 792.536 621.723 791.922C620.743 791.307 619.587 791 618.254 791C616.785 791 615.514 791.365 614.441 792.094C613.379 792.812 612.561 793.75 611.988 794.906C611.415 796.062 611.129 797.302 611.129 798.625V800.75C611.129 802.563 611.441 804.099 612.066 805.359C612.702 806.609 613.582 807.562 614.707 808.219C615.832 808.865 617.139 809.188 618.629 809.188C619.598 809.188 620.473 809.052 621.254 808.781C622.046 808.5 622.728 808.083 623.301 807.531C623.874 806.969 624.316 806.271 624.629 805.437L628.191 806.438C627.816 807.646 627.186 808.708 626.301 809.625C625.415 810.531 624.322 811.24 623.02 811.75C621.717 812.25 620.254 812.5 618.629 812.5ZM643.926 812.5C641.676 812.5 639.738 811.969 638.113 810.906C636.488 809.844 635.238 808.38 634.363 806.516C633.488 804.651 633.051 802.521 633.051 800.125C633.051 797.687 633.499 795.536 634.395 793.672C635.301 791.797 636.561 790.333 638.176 789.281C639.801 788.219 641.697 787.688 643.863 787.688C645.551 787.688 647.072 788 648.426 788.625C649.78 789.25 650.889 790.125 651.754 791.25C652.618 792.375 653.155 793.687 653.363 795.187H649.676C649.395 794.094 648.77 793.125 647.801 792.281C646.842 791.427 645.551 791 643.926 791C642.488 791 641.228 791.375 640.145 792.125C639.072 792.865 638.233 793.911 637.629 795.266C637.035 796.609 636.738 798.187 636.738 800C636.738 801.854 637.03 803.469 637.613 804.844C638.207 806.219 639.04 807.286 640.113 808.047C641.197 808.807 642.467 809.188 643.926 809.188C644.884 809.188 645.754 809.021 646.535 808.687C647.316 808.354 647.978 807.875 648.52 807.25C649.061 806.625 649.447 805.875 649.676 805H653.363C653.155 806.417 652.639 807.693 651.816 808.828C651.004 809.953 649.926 810.849 648.582 811.516C647.249 812.172 645.697 812.5 643.926 812.5ZM668.504 812.5C666.337 812.5 664.436 811.984 662.801 810.953C661.176 809.922 659.905 808.479 658.988 806.625C658.082 804.771 657.629 802.604 657.629 800.125C657.629 797.625 658.082 795.443 658.988 793.578C659.905 791.714 661.176 790.266 662.801 789.234C664.436 788.203 666.337 787.688 668.504 787.688C670.671 787.688 672.566 788.203 674.191 789.234C675.827 790.266 677.098 791.714 678.004 793.578C678.921 795.443 679.379 797.625 679.379 800.125C679.379 802.604 678.921 804.771 678.004 806.625C677.098 808.479 675.827 809.922 674.191 810.953C672.566 811.984 670.671 812.5 668.504 812.5ZM668.504 809.188C670.15 809.188 671.504 808.766 672.566 807.922C673.629 807.078 674.415 805.969 674.926 804.594C675.436 803.219 675.691 801.729 675.691 800.125C675.691 798.521 675.436 797.026 674.926 795.641C674.415 794.255 673.629 793.135 672.566 792.281C671.504 791.427 670.15 791 668.504 791C666.858 791 665.504 791.427 664.441 792.281C663.379 793.135 662.592 794.255 662.082 795.641C661.572 797.026 661.316 798.521 661.316 800.125C661.316 801.729 661.572 803.219 662.082 804.594C662.592 805.969 663.379 807.078 664.441 807.922C665.504 808.766 666.858 809.188 668.504 809.188ZM694.07 812.5C692.07 812.5 690.305 811.995 688.773 810.984C687.242 809.964 686.044 808.526 685.18 806.672C684.315 804.807 683.883 802.604 683.883 800.063C683.883 797.542 684.315 795.354 685.18 793.5C686.044 791.646 687.247 790.214 688.789 789.203C690.331 788.193 692.112 787.688 694.133 787.688C695.695 787.688 696.93 787.948 697.836 788.469C698.753 788.979 699.451 789.562 699.93 790.219C700.419 790.865 700.799 791.396 701.07 791.812H701.383V780H705.07V812H701.508V808.312H701.07C700.799 808.75 700.414 809.302 699.914 809.969C699.414 810.625 698.701 811.214 697.773 811.734C696.846 812.245 695.612 812.5 694.07 812.5ZM694.57 809.188C696.049 809.188 697.299 808.802 698.32 808.031C699.341 807.25 700.117 806.172 700.648 804.797C701.18 803.411 701.445 801.812 701.445 800C701.445 798.208 701.185 796.641 700.664 795.297C700.143 793.943 699.372 792.891 698.352 792.141C697.331 791.38 696.07 791 694.57 791C693.008 791 691.706 791.401 690.664 792.203C689.633 792.995 688.857 794.073 688.336 795.437C687.826 796.792 687.57 798.312 687.57 800C687.57 801.708 687.831 803.26 688.352 804.656C688.883 806.042 689.664 807.146 690.695 807.969C691.737 808.781 693.029 809.188 694.57 809.188ZM722.398 812.5C720.086 812.5 718.091 811.99 716.414 810.969C714.747 809.938 713.461 808.5 712.555 806.656C711.659 804.802 711.211 802.646 711.211 800.188C711.211 797.729 711.659 795.562 712.555 793.687C713.461 791.802 714.721 790.333 716.336 789.281C717.961 788.219 719.857 787.688 722.023 787.688C723.273 787.688 724.508 787.896 725.727 788.312C726.945 788.729 728.055 789.406 729.055 790.344C730.055 791.271 730.852 792.5 731.445 794.031C732.039 795.562 732.336 797.448 732.336 799.687V801.25H713.836V798.062H728.586C728.586 796.708 728.315 795.5 727.773 794.437C727.242 793.375 726.482 792.536 725.492 791.922C724.513 791.307 723.357 791 722.023 791C720.555 791 719.284 791.365 718.211 792.094C717.148 792.812 716.331 793.75 715.758 794.906C715.185 796.062 714.898 797.302 714.898 798.625V800.75C714.898 802.563 715.211 804.099 715.836 805.359C716.471 806.609 717.352 807.562 718.477 808.219C719.602 808.865 720.909 809.188 722.398 809.188C723.367 809.188 724.242 809.052 725.023 808.781C725.815 808.5 726.497 808.083 727.07 807.531C727.643 806.969 728.086 806.271 728.398 805.437L731.961 806.438C731.586 807.646 730.956 808.708 730.07 809.625C729.185 810.531 728.091 811.24 726.789 811.75C725.487 812.25 724.023 812.5 722.398 812.5ZM740.633 812.25C739.862 812.25 739.201 811.974 738.648 811.422C738.096 810.87 737.82 810.208 737.82 809.437C737.82 808.667 738.096 808.005 738.648 807.453C739.201 806.901 739.862 806.625 740.633 806.625C741.404 806.625 742.065 806.901 742.617 807.453C743.169 808.005 743.445 808.667 743.445 809.437C743.445 809.948 743.315 810.417 743.055 810.844C742.805 811.271 742.466 811.615 742.039 811.875C741.622 812.125 741.154 812.25 740.633 812.25ZM759.813 812.5C757.563 812.5 755.625 811.969 754 810.906C752.375 809.844 751.125 808.38 750.25 806.516C749.375 804.651 748.938 802.521 748.938 800.125C748.938 797.687 749.385 795.536 750.281 793.672C751.188 791.797 752.448 790.333 754.063 789.281C755.688 788.219 757.583 787.688 759.75 787.688C761.437 787.688 762.958 788 764.313 788.625C765.667 789.25 766.776 790.125 767.641 791.25C768.505 792.375 769.042 793.687 769.25 795.187H765.563C765.281 794.094 764.656 793.125 763.688 792.281C762.729 791.427 761.438 791 759.813 791C758.375 791 757.115 791.375 756.031 792.125C754.958 792.865 754.12 793.911 753.516 795.266C752.922 796.609 752.625 798.187 752.625 800C752.625 801.854 752.917 803.469 753.5 804.844C754.094 806.219 754.927 807.286 756 808.047C757.083 808.807 758.354 809.188 759.813 809.188C760.771 809.188 761.641 809.021 762.422 808.687C763.203 808.354 763.865 807.875 764.406 807.25C764.948 806.625 765.333 805.875 765.563 805H769.25C769.042 806.417 768.526 807.693 767.703 808.828C766.891 809.953 765.813 810.849 764.469 811.516C763.135 812.172 761.583 812.5 759.813 812.5ZM784.391 812.5C782.224 812.5 780.323 811.984 778.688 810.953C777.063 809.922 775.792 808.479 774.875 806.625C773.969 804.771 773.516 802.604 773.516 800.125C773.516 797.625 773.969 795.443 774.875 793.578C775.792 791.714 777.063 790.266 778.688 789.234C780.323 788.203 782.224 787.688 784.391 787.688C786.557 787.688 788.453 788.203 790.078 789.234C791.714 790.266 792.984 791.714 793.891 793.578C794.807 795.443 795.266 797.625 795.266 800.125C795.266 802.604 794.807 804.771 793.891 806.625C792.984 808.479 791.714 809.922 790.078 810.953C788.453 811.984 786.557 812.5 784.391 812.5ZM784.391 809.188C786.036 809.188 787.391 808.766 788.453 807.922C789.516 807.078 790.302 805.969 790.813 804.594C791.323 803.219 791.578 801.729 791.578 800.125C791.578 798.521 791.323 797.026 790.813 795.641C790.302 794.255 789.516 793.135 788.453 792.281C787.391 791.427 786.036 791 784.391 791C782.745 791 781.391 791.427 780.328 792.281C779.266 793.135 778.479 794.255 777.969 795.641C777.458 797.026 777.203 798.521 777.203 800.125C777.203 801.729 777.458 803.219 777.969 804.594C778.479 805.969 779.266 807.078 780.328 807.922C781.391 808.766 782.745 809.188 784.391 809.188ZM800.895 812V788H804.457V791.75H804.77C805.27 790.469 806.077 789.474 807.191 788.766C808.306 788.047 809.645 787.688 811.207 787.688C812.79 787.688 814.108 788.047 815.16 788.766C816.223 789.474 817.051 790.469 817.645 791.75H817.895C818.509 790.51 819.431 789.526 820.66 788.797C821.889 788.057 823.363 787.688 825.082 787.688C827.228 787.688 828.983 788.359 830.348 789.703C831.712 791.036 832.395 793.115 832.395 795.937V812H828.707V795.937C828.707 794.167 828.223 792.901 827.254 792.141C826.285 791.38 825.145 791 823.832 791C822.145 791 820.837 791.51 819.91 792.531C818.983 793.542 818.52 794.823 818.52 796.375V812H814.77V795.562C814.77 794.198 814.327 793.099 813.441 792.266C812.556 791.422 811.415 791 810.02 791C809.061 791 808.165 791.255 807.332 791.766C806.509 792.276 805.842 792.984 805.332 793.891C804.832 794.786 804.582 795.823 804.582 797V812H800.895Z" fill="black"/>
</svg>
